<?xml version="1.0" encoding="utf-8"?>
<!-- Generator: Adobe Illustrator 24.2.0, SVG Export Plug-In . SVG Version: 6.00 Build 0)  -->
<svg version="1.1" id="Capa_1" xmlns="http://www.w3.org/2000/svg" xmlns:xlink="http://www.w3.org/1999/xlink" x="0px" y="0px"
	 viewBox="0 0 72 46.4" style="enable-background:new 0 0 72 46.4;" xml:space="preserve">
<style type="text/css">
	.st0{fill:#FFFFFF;}
</style>
<g>
	<path class="st0" d="M0,26.3c0-11.1,9.1-20,20.2-20c1.5,0,3,0.2,4.5,0.5C27.4,2.6,32,0,37.1,0c6.2,0,11.6,3.8,13.7,9.4
		c2-1,4.2-1.5,6.4-1.5C65.4,7.8,72,14.4,72,22.4S65.4,37,57.3,37c-1.4,0-2.8-0.2-4.2-0.6c-2,5.9-7.5,10-13.9,10
		c-3.1,0-6.2-1-8.7-2.8c-3.1,1.9-6.7,2.8-10.3,2.8C9.1,46.3,0,37.3,0,26.3z"/>
</g>
</svg>
