<?xml version="1.0" encoding="utf-8"?>
<!-- Generator: Adobe Illustrator 24.2.0, SVG Export Plug-In . SVG Version: 6.00 Build 0)  -->
<svg version="1.1" id="Capa_1" xmlns="http://www.w3.org/2000/svg" xmlns:xlink="http://www.w3.org/1999/xlink" x="0px" y="0px"
	 viewBox="0 0 72 46.3" style="enable-background:new 0 0 72 46.3;" xml:space="preserve">
<style type="text/css">
	.st0{fill:#FFFFFF;}
</style>
<path class="st0" d="M32.1,46.3H13.9C6.3,46.3,0,40,0,32.4C0,27,3.5,21.5,8.2,19.2L9,18.8V18c0-0.1,0-0.4,0-0.5v-0.3V17
	c0-0.1,0-0.3,0-0.3c0-5,4-9,9-9c0.4,0,0.8,0,1.2,0.1c0.1,0,0.3,0,0.3,0c0.4,0,0.6,0.1,1,0.3h0.1c0.4,0.1,0.8,0.3,1,0.4
	c0.1,0,0.1,0.1,0.3,0.1c0.3,0.1,0.6,0.3,0.9,0.5c2.4,1.5,4.1,4.4,4.1,7.6c0,0.8,0.5,1.3,1.3,1.3s1.3-0.5,1.3-1.3
	c0-3.6-1.5-6.7-4.1-8.9C29.1,3,35.1,0,41.1,0c9.9,0,18.3,7.8,19,17.9c-1.3-0.1-3.3-0.1-5.3,0.1c-0.6,0.1-1.2,0.8-1,1.4
	c0.1,0.6,0.6,1.2,1.3,1.2c0,0,0.1,0,0.3,0c2.8-0.4,5.8,0,6,0c6,1.2,10.5,6.7,10.5,12.9c0,7.1-5.8,12.9-12.9,12.9H42.4H32.1z"/>
</svg>
