<?xml version="1.0" encoding="utf-8"?>
<!-- Generator: Adobe Illustrator 24.2.0, SVG Export Plug-In . SVG Version: 6.00 Build 0)  -->
<svg version="1.1" id="Layer_1" xmlns="http://www.w3.org/2000/svg" xmlns:xlink="http://www.w3.org/1999/xlink" x="0px" y="0px"
	 viewBox="0 0 250 250" style="enable-background:new 0 0 250 250;" xml:space="preserve">
<style type="text/css">
	.st0{fill:#FFFFFF;}
</style>
<path class="st0" d="M149.3,15c-0.5,0.1-1.1,0.2-1.6,0.5c-4.3,2.1-9.2,8.5-10.1,9.7c-0.1,0.1-0.1,0.2-0.2,0.2
	c-4.8,7.2-7.4,15.7-7.5,24.5c-0.1,6.6,1.2,13.1,3.8,19.5c6.1,14.6,18.8,26.7,33.8,32.4c0.5,0.2,1,0.4,1.9,0.7c0.1,0,0.8,0.3,0.9,0.3
	l0.5,0.2c0.8,0.3,1.6,0.5,2.4,0.7c4,0.8,7.8,1.2,11.5,1.4c0.6,0,1.2,0,1.9,0c27.4,0,38-19.3,41.6-25.8c0.4-0.6,0.6-1.1,0.8-1.4
	c0,0,0,0,0,0c1.5-2.3,1-5.4-1.3-7c-2.3-1.5-5.4-1-6.9,1.3h0c-7.3,10.8-19.8,14-37.1,9.7c-1.3-0.3-2.7-0.8-3.9-1.3
	c-1.6-0.6-3.3-1.3-4.8-2c-3-1.5-5.9-3.3-8.5-5.3c-15.2-11.8-21.2-36.4-12.3-50.6c1.2-1.9,1-4.4-0.5-6
	C152.6,15.4,150.9,14.8,149.3,15z M105,25c-1.1,0-2.3,0.4-3.2,1.1c-7.6,6.2-15.3,16.2-15.6,16.6c0,0.1-0.1,0.1-0.1,0.2
	c-13.7,19.9-14.7,48.2-2.6,72.1c1.9,3.8,4,7.4,6.3,10.7l0.7,1c1.9,2.8,4.1,6,6.9,8.5c1,1.1,2,2.1,3,3.2l0.5,0.5l0.4,0.4
	c1,1,2.1,2,3.2,3h0c0.1,0.1,0.2,0.2,0.3,0.3c1.2,1.1,2.5,2.1,4.1,3.4l0.4,0.3c1.3,1,2.6,2,3.9,3c0.1,0.1,0.3,0.2,0.4,0.3
	c0.5,0.3,0.9,0.6,1.4,0.9l0.5,0.3l0.5,0.4c1,0.7,2,1.3,3.4,2.1c0.9,0.5,1.9,1.1,2.5,1.4c0.3,0.2,0.6,0.3,1.2,0.7l1.5,0.8
	c0.1,0,0.4,0.2,0.5,0.2c1,0.5,2,1,3.1,1.5l1.6,0.7c1,0.4,2.1,0.9,3.4,1.4l0.6,0.2c0,0,0.5,0.2,0.6,0.2c0.9,0.3,1.9,0.7,2.9,1
	l2.2,0.7c1.1,0.4,2.4,0.8,3.8,1c6.8,1.1,13.4,1.7,19.7,1.7c0.7,0,1.5,0,2.2,0c55.2-1.2,69.6-48.1,69.7-48.6c0.7-2.4-0.4-4.9-2.7-5.9
	s-4.9-0.3-6.3,1.7c-14,20.4-40.4,29.1-67.4,22c-1.2-0.3-2.5-0.7-4-1.2c-0.3-0.1-0.5-0.2-0.9-0.3c-0.9-0.3-1.7-0.6-2.7-0.9l-1.4-0.5
	c-0.8-0.3-1.6-0.6-2.6-1.1l-0.6-0.3c-1.2-0.5-2.3-1.1-3.4-1.6l-2.9-1.5c-0.6-0.3-1.2-0.7-2.1-1.2l-0.5-0.3L137,125
	c-0.7-0.4-1.4-0.9-2.1-1.3l-0.5-0.3c0,0-0.4-0.3-0.5-0.3c-0.6-0.4-1.2-0.7-1.7-1.1c-1.2-0.9-2.4-1.8-3.8-2.9l-0.5-0.4
	c-12.9-10.3-22.4-24-26.9-38.8c-4.2-13.5-1.1-31.3,8.3-47.4c1.2-2.1,0.8-4.7-1.1-6.3C107.3,25.4,106.2,25,105,25z M50,40
	c-1.2,0-2.4,0.4-3.4,1.3C37.1,49.9,30,61,29.2,62.2c-20.4,29.7-16.5,76-2.5,104.2c0.3,0.6,0.6,1.2,0.9,1.7l0.2,0.3
	c0.3,0.6,0.5,1.2,0.6,1.3c0.2,0.4,0.4,0.8,0.5,0.9c0.2,0.5,0.5,0.9,0.9,1.7l1.6,2.8c0.2,0.4,0.5,0.8,0.5,0.9c0.3,0.5,0.6,1,1,1.6
	l0.8,1.2c0.2,0.4,0.5,0.7,0.6,0.9c0.8,1.2,1.6,2.4,2.4,3.6c0,0.1,0.1,0.1,0.1,0.1l0.3,0.4c0.7,1,1.4,2,2.1,2.8l2.9,3.6
	c0,0,0.4,0.4,0.4,0.4l0.4,0.5c0.9,1.1,1.8,2.1,2.7,3.1c0.1,0.2,0.3,0.3,0.4,0.4c0.9,1,1.8,1.9,2.7,2.9l0.9,0.9
	c0.7,0.8,1.5,1.5,2.3,2.3c0,0,0.4,0.4,0.4,0.4l0.8,0.7c0.9,0.9,1.9,1.8,2.7,2.4c0,0.1,0.7,0.7,0.8,0.7c0.9,0.8,1.8,1.6,2.8,2.4
	l4.8,3.8c0.8,0.6,1.6,1.2,2.6,1.9c0.3,0.2,0.6,0.5,1,0.7c0.1,0.1,0.3,0.2,0.4,0.3l3.6,2.4c1.3,0.9,2.6,1.7,4.2,2.6l0.9,0.5
	c1,0.6,2,1.2,3,1.7c0.6,0.3,1.1,0.6,1.6,0.8c0.7,0.4,1.4,0.8,2.6,1.3c0.1,0.1,0.9,0.4,1,0.5c1.1,0.6,2.3,1.1,3.7,1.7
	c0,0,0.5,0.2,0.5,0.2c1.3,0.6,2.6,1.1,4.3,1.8c0.3,0.1,0.5,0.2,0.6,0.2c1.2,0.5,2.5,0.9,3.5,1.3c0.1,0,0.6,0.3,0.7,0.3
	c1.4,0.5,2.8,0.9,4.5,1.5c0.3,0.1,0.6,0.2,0.6,0.2l1,0.3c1.2,0.4,2.4,0.8,3.7,1c9.3,1.7,18.4,2.6,27,2.6h0
	c71.6,0,94.4-57.6,94.7-58.2c0.9-2.3-0.1-4.9-2.3-6.2c-2.1-1.2-4.9-0.6-6.4,1.3c-18.4,24.2-53,33.2-92.7,24.1
	c-1-0.2-1.9-0.5-2.9-0.8l-1.9-0.6c-1.3-0.4-2.5-0.8-3.8-1.2c0,0-0.6-0.2-0.6-0.2c-1.1-0.4-2.2-0.8-3.1-1.2l-1.1-0.4
	c-1.2-0.5-2.4-1-3.6-1.5l-0.7-0.3c-1.1-0.5-2.1-1-3.1-1.5c-0.1,0-0.9-0.4-1-0.4c-0.7-0.4-1.4-0.7-2.3-1.2l-4.1-2.2
	c-0.4-0.3-0.8-0.5-1.2-0.7c-1.2-0.8-2.5-1.5-3.8-2.3c-0.3-0.2-0.5-0.4-1-0.7c-0.9-0.5-1.7-1.1-2.9-2l-0.5-0.4
	c-0.8-0.6-1.7-1.2-2.3-1.7c-0.4-0.3-0.9-0.7-1.6-1.2c-0.6-0.5-1.2-1-1.8-1.4l-1.1-0.9c-0.9-0.7-1.8-1.5-2.7-2.3
	c-0.1-0.1-0.2-0.2-0.4-0.3c-1-0.9-2-1.8-3.2-3l-3.5-3.5c-0.9-0.9-1.7-1.8-2.7-2.9c-0.9-1-1.8-2-2.9-3.4l-2.1-2.6
	c-0.3-0.4-0.5-0.7-0.9-1.1c-0.7-1-1.4-1.9-2.2-2.9C43.9,124.4,38.9,68.5,54,48c1.5-2.1,1.2-4.9-0.7-6.7C52.4,40.4,51.2,40,50,40z"/>
</svg>
