<?xml version="1.0" encoding="utf-8"?>
<!-- Generator: Adobe Illustrator 24.2.0, SVG Export Plug-In . SVG Version: 6.00 Build 0)  -->
<svg version="1.1" id="Capa_1" xmlns="http://www.w3.org/2000/svg" xmlns:xlink="http://www.w3.org/1999/xlink" x="0px" y="0px"
	 viewBox="0 0 57.1 57" style="enable-background:new 0 0 57.1 57;" xml:space="preserve">
<style type="text/css">
	.st0{fill:#FFFFFF;}
</style>
<g>
	<g>
		<path class="st0" d="M30.4,51.6c-14.8,0-26.8-12-26.8-26.8c0-10.2,5.7-19.4,14.9-24c0.4-0.2,0.9-0.1,1.2,0.2
			c0.3,0.3,0.4,0.8,0.2,1.2c-1.7,3.4-2.5,7.1-2.5,10.9c0,13.6,11.1,24.7,24.7,24.7c3.9,0,7.5-0.9,11-2.6c0.4-0.2,0.9-0.1,1.2,0.2
			c0.3,0.3,0.4,0.8,0.2,1.2C50,45.8,40.7,51.6,30.4,51.6z"/>
	</g>
</g>
</svg>
