<?xml version="1.0" encoding="utf-8"?>
<!-- Generator: Adobe Illustrator 24.2.0, SVG Export Plug-In . SVG Version: 6.00 Build 0)  -->
<svg version="1.1" xmlns="http://www.w3.org/2000/svg" xmlns:xlink="http://www.w3.org/1999/xlink" x="0px" y="0px"
	 viewBox="0 0 25.9 13.4" style="enable-background:new 0 0 25.9 13.4;" xml:space="preserve">
<style type="text/css">
	.st0{fill:#856CAE;}
</style>
<g id="Guides">
</g>
<g id="Crop_Marks">
	<g>
		<path class="st0" d="M8.6,5.9c0-0.1,0-0.1-0.1-0.2c-0.2-0.4-1-0.4-1.3,0c-0.4,0.5-1,1-1.6,1.3C5.2,7.2,4.8,7.3,4.3,7.3
			c-0.2,0-0.4,0-0.6-0.1C3.1,6.9,2.5,6.5,2.2,5.8C2,5.4,1.4,5.4,1.1,5.6C0.8,5.8,0.7,6.2,0.9,6.5C1.4,7.3,2,7.9,2.8,8.3
			c0.4,0.2,0.9,0.4,1.4,0.4c0.5,0,0.9,0,1.4-0.1c0.3-0.1,0.6-0.2,0.9-0.4C6.7,8.1,7,7.9,7.2,7.7c0,0.1,0,0.1,0,0.2c0,1.5,0,3,0,4.5
			c0,0.1,0,0.1,0,0.2c0,0.4,0.3,0.7,0.6,0.7c0.4,0,0.7-0.2,0.8-0.6c0-0.1,0-0.2,0-0.2c0-2,0-4.1,0-6.1C8.6,6.2,8.6,6,8.6,5.9z"/>
		<path class="st0" d="M1.9,4.8C1.8,4.1,2,3.5,2.3,3c0.4-0.6,0.9-1,1.6-1.2C4.5,1.6,5.1,1.7,5.7,2c1.1,0.6,1.6,1.7,1.5,2.9
			c0,0.2,0,0.2,0.2,0.2c0.2,0,0.3,0,0.5,0c0.2,0,0.3,0,0.5,0C8.6,5,8.6,5,8.6,4.9c0-0.5,0-0.9-0.1-1.4C8.2,2.3,7.6,1.4,6.6,0.8
			C6,0.4,5.4,0.3,4.7,0.2c-0.4,0-0.9,0-1.3,0.2C2.9,0.5,2.5,0.8,2.1,1.1c-0.4,0.3-0.8,0.7-1,1.2C0.8,2.7,0.6,3.1,0.6,3.6
			C0.5,4,0.5,4.4,0.5,4.8c0,0.2,0.1,0.2,0.2,0.2c0.3,0,0.6,0,0.9,0C1.9,5.1,1.9,5,1.9,4.8z"/>
		<path class="st0" d="M16,5.6c-0.2-0.2-0.5-0.2-0.7-0.2c-0.4,0.1-0.6,0.3-0.6,0.7c0,0.2-0.1,0.5-0.2,0.7c-0.4,1.1-1.8,1.4-2.7,0.5
			c-0.3-0.3-0.5-0.8-0.5-1.2c0-0.2-0.1-0.4-0.3-0.6c-0.3-0.2-0.7-0.2-1,0C9.9,5.7,9.8,5.9,9.8,6.1c0,0.6,0,1.1,0.3,1.6
			c0.4,0.8,1,1.2,1.8,1.4c0.5,0.1,1,0.1,1.5,0.1c0.2,0,0.4,0,0.6-0.1c0.2,0,0.4-0.1,0.6-0.2c0.7-0.3,1.2-0.8,1.5-1.5
			c0.2-0.5,0.2-1,0.2-1.5C16.3,5.9,16.2,5.7,16,5.6z"/>
		<path class="st0" d="M24.7,5.4c-0.3-0.1-0.6,0-0.7,0.2c-0.1,0.1-0.1,0.1-0.1,0.2C23.5,6.5,23,7,22.4,7.2c-0.6,0.3-1.3,0.3-1.9,0.1
			c-0.7-0.2-1.3-0.7-1.6-1.4c-0.1-0.3-0.4-0.5-0.7-0.4c-0.3,0-0.6,0.3-0.6,0.6c0,0.3,0.1,0.6,0.3,0.9c0.8,1.2,2,1.9,3.4,1.9
			c0.1,0,0.2,0,0.3,0c0.6,0,1.2-0.2,1.7-0.5c0.6-0.4,1.1-0.8,1.5-1.5c0.1-0.2,0.3-0.4,0.3-0.7C25.2,5.8,25,5.5,24.7,5.4z"/>
		<path class="st0" d="M15.5,0.5c-0.4,0-0.8,0.3-0.8,0.8c0,0.6,0,1.2,0,1.8c0,0,0,0,0,0c0,0.6,0,1.2,0,1.8c0,0.1,0,0.2,0.2,0.2
			c0.4,0,0.8,0,1.1,0c0.2,0,0.3-0.1,0.3-0.3c0-1.2,0-2.4,0-3.5C16.3,0.9,16,0.4,15.5,0.5z"/>
		<path class="st0" d="M10,5c0.4,0,0.7,0,1.1,0c0.2,0,0.2,0,0.2-0.2c0-0.6,0-1.2,0-1.8h0c0-0.6,0-1.2,0-1.8c0-0.4-0.3-0.8-0.7-0.8
			c-0.5,0-0.8,0.3-0.8,0.8c0,1.2,0,2.4,0,3.6C9.7,5,9.8,5,10,5z"/>
		<path class="st0" d="M25.2,3.6c-0.1-0.8-0.4-1.5-0.9-2.1c-0.6-0.7-1.3-1-2.2-1.1c-0.8-0.1-1.5,0-2.2,0.3c-0.9,0.4-1.5,0.9-1.9,1.7
			c-0.4,0.7-0.5,1.5-0.5,2.3c0,0.2,0,0.3,0.3,0.3c1.2,0,2.4,0,3.7,0c1.2,0,2.5,0,3.7,0c0.1,0,0.2,0,0.2-0.2
			C25.3,4.4,25.3,4,25.2,3.6z M23.6,3.8c-0.1,0-0.2,0-0.3,0c-0.7,0-1.3,0-2,0c0,0,0,0,0,0c-0.7,0-1.4,0-2.1,0c-0.2,0-0.3,0-0.2-0.3
			c0.2-0.8,0.7-1.4,1.4-1.8c0.4-0.2,0.9-0.2,1.3-0.2c0.5,0.1,0.9,0.2,1.3,0.6c0.4,0.4,0.6,0.9,0.6,1.5C23.7,3.7,23.6,3.8,23.6,3.8z"
			/>
	</g>
</g>
</svg>
